<svg id="レイヤー_1" data-name="レイヤー 1" xmlns="http://www.w3.org/2000/svg" viewBox="0 0 612.29 833.3"><defs><style>.cls-1,.cls-6{fill:#231815;}.cls-2{fill:#c8161e;}.cls-3{fill:#727171;}.cls-4{fill:#595757;}.cls-5{fill:#3e3a39;}.cls-6{font-size:8px;}.cls-11,.cls-12,.cls-6{font-family:Helvetica Neue;}.cls-7{fill:#898989;}.cls-8{fill:#b5b5b6;}.cls-10,.cls-9{fill:none;stroke:#ccc;stroke-miterlimit:10;}.cls-10{stroke-width:1.14px;}.cls-11{font-size:12px;}.cls-11,.cls-12{fill:#999899;}.cls-12{font-size:10px;}.cls-13{fill:#fff;}.cls-14{fill:#666;}</style></defs><title>cy4logo</title><rect class="cls-1" y="598.27" width="612.29" height="235.02"/><rect class="cls-2" x="480.09" y="389.49" width="12.25" height="12.25"/><rect class="cls-3" x="480.09" y="415.55" width="12.25" height="12.25"/><rect class="cls-4" x="480.09" y="437.34" width="12.25" height="12.25"/><rect class="cls-5" x="480.09" y="459.79" width="12.25" height="12.25"/><text class="cls-6" transform="translate(499.21 399.02)">C:20 M:100 Y:100 K:0 </text><text class="cls-6" transform="translate(499.21 424.69)">C:0 M:0 Y:0 K:70 </text><text class="cls-6" transform="translate(499.21 448.02)">C:0 M:0 Y:0 K:80 </text><text class="cls-6" transform="translate(499.21 469.02)">C:0 M:0 Y:0 K:90 </text><rect class="cls-7" x="480.09" y="544.59" width="12.25" height="12.25"/><rect class="cls-8" x="480.09" y="566.38" width="12.25" height="12.24"/><text class="cls-6" transform="translate(499.21 553.73)">C:0 M:0 Y:0 K:60 </text><text class="cls-6" transform="translate(499.21 577.07)">C:0 M:0 Y:0 K:40 </text><line class="cls-9" x1="471.59" y1="486.47" x2="589.9" y2="486.47"/><text class="cls-6" transform="translate(471.59 377.48)">on white back</text><text class="cls-6" transform="translate(471.59 502.55)">on black back</text><rect class="cls-10" x="28.12" y="0.57" width="556.05" height="54.42"/><text class="cls-11" transform="translate(47.31 26.42)">Title : <tspan x="30.9" y="0">Code for YOKOHAMA LOGO</tspan></text><text class="cls-12" transform="translate(47.31 42.06)">by Iwao KOBAYASHI</text><text class="cls-12" transform="translate(491.69 32.54)">ver. Dec 14, 2014</text><path class="cls-2" d="M296.39,150c4.87,2,10.87,2.57,15.76,0,6-3.13,11.94-7.55,15.84-13.86,2.63-4.25,2.12-8-.51-11.54-3-4-13.06-11.14-28.27-11.14-17.37,0-25.37,6.72-28.6,9.18s-3.93,6.91,0,11.31C275.8,139.81,290.11,147.36,296.39,150Z" transform="translate(8.5 -16.3)"/><path class="cls-2" d="M300.72,171.64c-1.5-6.61-4.62-9.66-9.12-13.37-5.13-4.23-18.74-14.14-27.13-14.14-5.28,0-9.07,1.78-11,6.69,0,0-1.86,2.87-1.86,10.64,0,25.41,20,44.09,37.75,44.09,5,0,7.9-2.62,9.53-7.72C301.21,190.65,301.89,176.83,300.72,171.64Z" transform="translate(8.5 -16.3)"/><path class="cls-2" d="M316.07,158.52c-3.37,3.51-6.49,8.57-6.61,14.16s-0.66,15.17,1,21.74c1.26,5.12,3.56,6.25,8.76,3.6,7.28-3.7,24.46-17.12,24.46-38.48,0-11.22-5.13-14.69-10.77-12.78C328.65,148.2,319.45,155,316.07,158.52Z" transform="translate(8.5 -16.3)"/><path class="cls-4" d="M207.09,248.12a0.74,0.74,0,0,1-.79-0.79v-2.89c0-2.14-1-3.19-3.19-3.19H202.5c-2.14,0-3.2,1.05-3.2,3.19v14.27c0,2.14,1.05,3.2,3.2,3.2h0.66c2.14,0,3.2-1.05,3.2-3.2v-3.63a0.72,0.72,0,0,1,.79-0.74h0.09a0.71,0.71,0,0,1,.74.74v3.59c0,3.19-1.62,4.81-4.77,4.81h-0.74c-3.2,0-4.81-1.62-4.81-4.81V244.49c0-3.2,1.62-4.81,4.81-4.81h0.7c3.2,0,4.77,1.62,4.77,4.77v2.89a0.72,0.72,0,0,1-.74.79h-0.09Z" transform="translate(8.5 -16.3)"/><path class="cls-4" d="M215.71,263.48h-0.92c-3.19,0-4.81-1.62-4.81-4.81V244.49c0-3.2,1.62-4.81,4.81-4.81h0.92c3.15,0,4.77,1.62,4.77,4.81v14.18C220.48,261.86,218.86,263.48,215.71,263.48Zm0-22.23h-0.83c-2.14,0-3.2,1.05-3.2,3.19v14.27c0,2.14,1.05,3.2,3.2,3.2h0.83c2.14,0,3.19-1.05,3.19-3.2V244.45C218.86,242.3,217.81,241.25,215.67,241.25Z" transform="translate(8.5 -16.3)"/><path class="cls-4" d="M231.2,232.8a0.72,0.72,0,0,1,.79-0.74h0.09a0.71,0.71,0,0,1,.74.74v29.8a0.72,0.72,0,0,1-.74.79H232a0.74,0.74,0,0,1-.79-0.79v-1.09c-1.53,1.23-2.71,2-4.6,2-2.71,0-4.07-1.4-4.07-3.9v-16c0-2.54,1.36-3.9,4.07-3.9a6.89,6.89,0,0,1,4.6,1.93v-8.8Zm-7,26.61a2.27,2.27,0,0,0,2.54,2.49c1.66,0,2.89-.79,4.51-2.19V243.57c-1.62-1.44-2.84-2.32-4.38-2.32s-2.67.74-2.67,2.49v15.67Z" transform="translate(8.5 -16.3)"/><path class="cls-4" d="M244.46,258.62c0,3.2-1.66,4.86-4.86,4.86h-0.53c-3.24,0-4.86-1.66-4.86-4.86V244.53c0-3.19,1.62-4.86,4.86-4.86h0.53c3.19,0,4.86,1.66,4.86,4.86v6.92a0.8,0.8,0,0,1-.83.83h-7.75v6.39c0,2.14,1,3.24,3.24,3.24h0.48c2.14,0,3.24-1.09,3.24-3.24v-2.1a0.72,0.72,0,0,1,.79-0.74h0.09a0.71,0.71,0,0,1,.74.74v2.06Zm-8.58-14.13v6.21h6.91v-6.21c0-2.14-1.09-3.24-3.46-3.24S235.88,242.34,235.88,244.49Z" transform="translate(8.5 -16.3)"/><path class="cls-3" d="M255.4,263.4h-0.09a0.74,0.74,0,0,1-.79-0.79V241.43h-1.18a0.69,0.69,0,0,1-.7-0.7v-0.09a0.7,0.7,0,0,1,.7-0.74h1.18V236c0-2.54,1.14-3.85,3.68-3.85h0.74a0.74,0.74,0,0,1,.79.7V233a0.75,0.75,0,0,1-.79.74h-0.7c-1.44,0-2.06.74-2.06,2.23v3.89h2.67a0.69,0.69,0,0,1,.7.7v0.09a0.7,0.7,0,0,1-.7.74h-2.67v21.18A0.74,0.74,0,0,1,255.4,263.4Z" transform="translate(8.5 -16.3)"/><path class="cls-3" d="M264.94,263.48H264c-3.2,0-4.81-1.62-4.81-4.81V244.49c0-3.2,1.62-4.81,4.81-4.81h0.92c3.15,0,4.77,1.62,4.77,4.81v14.18C269.71,261.86,268.09,263.48,264.94,263.48Zm0-22.23h-0.83c-2.14,0-3.2,1.05-3.2,3.19v14.27c0,2.14,1.05,3.2,3.2,3.2h0.83c2.14,0,3.19-1.05,3.19-3.2V244.45C268.09,242.3,267,241.25,264.9,241.25Z" transform="translate(8.5 -16.3)"/><path class="cls-3" d="M272.77,263.4a0.74,0.74,0,0,1-.79-0.79v-22.1a0.72,0.72,0,0,1,.79-0.74h0.09a0.71,0.71,0,0,1,.74.74v1.58c1-1.18,2.54-2.41,3.59-2.41a0.78,0.78,0,0,1,.88.79,1.06,1.06,0,0,1-1,1,8.1,8.1,0,0,0-3.46,2.19v18.95a0.73,0.73,0,0,1-.74.79h-0.09Z" transform="translate(8.5 -16.3)"/><path class="cls-5" d="M291.85,262.08a1.13,1.13,0,0,1-1.27,1.27h-0.09a1.13,1.13,0,0,1-1.27-1.27v-9.32l-4.73-18.64a1.14,1.14,0,0,1,1.23-1.58h0.09a1.12,1.12,0,0,1,1.22,1l3.5,15.45,3.59-15.49a1.08,1.08,0,0,1,1.18-.92h0.09a1.06,1.06,0,0,1,1.14,1.49l-4.68,18.6v9.45Z" transform="translate(8.5 -16.3)"/><path class="cls-5" d="M309.49,258.14c0,3.54-1.79,5.38-5.38,5.38h-1.4c-3.59,0-5.38-1.84-5.38-5.38V237.71c0-3.5,1.79-5.34,5.38-5.34h1.4c3.59,0,5.38,1.84,5.38,5.34v20.44Zm-2.63-20.53c0-1.88-.92-2.8-2.84-2.8h-1.23c-1.93,0-2.84.92-2.84,2.8v20.66c0,1.88.92,2.8,2.84,2.8H304c1.92,0,2.84-.92,2.84-2.8V237.62Z" transform="translate(8.5 -16.3)"/><path class="cls-5" d="M320.43,262.43l-6.21-14.31v14a1.13,1.13,0,0,1-1.27,1.27h-0.09a1.13,1.13,0,0,1-1.27-1.27V233.81a1.13,1.13,0,0,1,1.27-1.27h0.09a1.13,1.13,0,0,1,1.27,1.27v13.74l6.39-13.92a1.45,1.45,0,0,1,1.31-1.09,1.19,1.19,0,0,1,1.18,1.71l-6.3,13.44,6.13,13.87A1.32,1.32,0,1,1,320.43,262.43Z" transform="translate(8.5 -16.3)"/><path class="cls-5" d="M336.09,258.14c0,3.54-1.79,5.38-5.38,5.38h-1.4c-3.59,0-5.38-1.84-5.38-5.38V237.71c0-3.5,1.79-5.34,5.38-5.34h1.4c3.59,0,5.38,1.84,5.38,5.34v20.44Zm-2.63-20.53c0-1.88-.92-2.8-2.84-2.8H329.4c-1.92,0-2.84.92-2.84,2.8v20.66c0,1.88.92,2.8,2.84,2.8h1.23c1.93,0,2.84-.92,2.84-2.8V237.62Z" transform="translate(8.5 -16.3)"/><path class="cls-5" d="M340.82,246.42h6.74v-12.6a1.13,1.13,0,0,1,1.27-1.27h0.09a1.13,1.13,0,0,1,1.27,1.27v28.27a1.13,1.13,0,0,1-1.27,1.27h-0.09a1.13,1.13,0,0,1-1.27-1.27V248.87h-6.74v13.22a1.13,1.13,0,0,1-1.27,1.27h-0.09a1.13,1.13,0,0,1-1.27-1.27V233.81a1.13,1.13,0,0,1,1.27-1.27h0.09a1.13,1.13,0,0,1,1.27,1.27v12.6Z" transform="translate(8.5 -16.3)"/><path class="cls-5" d="M363.09,263.35a1.11,1.11,0,0,1-1.18-1l-0.74-4.86h-6.48l-0.74,4.86a1.11,1.11,0,0,1-1.18,1h-0.09a1.1,1.1,0,0,1-1.23-1.4l4.68-28.27a1.3,1.3,0,0,1,1.44-1.23h0.7a1.3,1.3,0,0,1,1.44,1.23L364.4,262a1.1,1.1,0,0,1-1.23,1.4h-0.09ZM360.77,255l-2.84-18.29L355,255h5.73Z" transform="translate(8.5 -16.3)"/><path class="cls-5" d="M368.17,257.14v5a1.09,1.09,0,0,1-1.18,1.22H366.9a1.11,1.11,0,0,1-1.23-1.22V234a1.31,1.31,0,0,1,1.44-1.44h1.22a1.28,1.28,0,0,1,1.4,1.18l4.81,25,4.81-25a1.29,1.29,0,0,1,1.4-1.18H382A1.31,1.31,0,0,1,383.4,234v28.1a1.12,1.12,0,0,1-1.22,1.27h-0.09a1.13,1.13,0,0,1-1.27-1.27v-5l0.09-19.87-4.9,25a1.28,1.28,0,0,1-1.4,1.18h-0.22a1.28,1.28,0,0,1-1.4-1.18l-4.9-25.08Z" transform="translate(8.5 -16.3)"/><path class="cls-5" d="M396.3,263.35a1.11,1.11,0,0,1-1.18-1l-0.75-4.86H387.9l-0.74,4.86a1.11,1.11,0,0,1-1.18,1h-0.09a1.1,1.1,0,0,1-1.23-1.4l4.68-28.27a1.3,1.3,0,0,1,1.44-1.23h0.7a1.3,1.3,0,0,1,1.44,1.23L397.62,262a1.1,1.1,0,0,1-1.22,1.4H396.3ZM394,255l-2.84-18.29L388.25,255H394Z" transform="translate(8.5 -16.3)"/><path class="cls-2" d="M92.47,356.92c3.17,1.32,7.08,1.67,10.27,0a25.77,25.77,0,0,0,10.32-9,6.12,6.12,0,0,0-.33-7.52c-1.93-2.59-8.51-7.26-18.42-7.26-11.32,0-16.53,4.38-18.64,6s-2.56,4.5,0,7.37C79.06,350.3,88.38,355.22,92.47,356.92Z" transform="translate(8.5 -16.3)"/><path class="cls-2" d="M95.29,371c-1-4.31-3-6.3-5.94-8.71-3.34-2.76-12.21-9.21-17.67-9.21-3.44,0-5.91,1.16-7.15,4.36,0,0-1.21,1.87-1.21,6.93,0,16.55,13,28.73,24.6,28.73,3.23,0,5.15-1.71,6.21-5C95.61,383.42,96.06,374.42,95.29,371Z" transform="translate(8.5 -16.3)"/><path class="cls-2" d="M105.3,362.49c-2.2,2.29-4.23,5.59-4.31,9.22s-0.43,9.88.62,14.16c0.82,3.33,2.32,4.07,5.71,2.35,4.74-2.41,15.94-11.15,15.94-25.07,0-7.31-3.35-9.57-7-8.33C113.49,355.77,107.5,360.2,105.3,362.49Z" transform="translate(8.5 -16.3)"/><path class="cls-4" d="M141.42,368.46a0.74,0.74,0,0,1-.79-0.79v-2.89c0-2.14-1-3.2-3.19-3.2h-0.61c-2.14,0-3.2,1.05-3.2,3.2V379c0,2.14,1.05,3.2,3.2,3.2h0.66c2.14,0,3.2-1.05,3.2-3.2v-3.63a0.72,0.72,0,0,1,.79-0.74h0.09a0.71,0.71,0,0,1,.74.74V379c0,3.2-1.62,4.81-4.77,4.81h-0.74c-3.2,0-4.81-1.62-4.81-4.81V364.82c0-3.2,1.62-4.81,4.81-4.81h0.7c3.2,0,4.77,1.62,4.77,4.77v2.89a0.72,0.72,0,0,1-.74.79h-0.09Z" transform="translate(8.5 -16.3)"/><path class="cls-4" d="M150,383.82h-0.92c-3.19,0-4.81-1.62-4.81-4.81V364.82c0-3.2,1.62-4.81,4.81-4.81H150c3.15,0,4.77,1.62,4.77,4.81V379C154.81,382.2,153.19,383.82,150,383.82Zm0-22.23h-0.83c-2.14,0-3.2,1.05-3.2,3.2V379c0,2.14,1.05,3.2,3.2,3.2H150c2.14,0,3.19-1.05,3.19-3.2V364.78C153.19,362.64,152.14,361.59,150,361.59Z" transform="translate(8.5 -16.3)"/><path class="cls-4" d="M165.53,353.14a0.72,0.72,0,0,1,.79-0.74h0.09a0.71,0.71,0,0,1,.74.74v29.8a0.72,0.72,0,0,1-.74.79h-0.09a0.74,0.74,0,0,1-.79-0.79v-1.09c-1.53,1.23-2.71,2-4.6,2-2.71,0-4.07-1.4-4.07-3.9v-16c0-2.54,1.36-3.9,4.07-3.9a6.89,6.89,0,0,1,4.6,1.93v-8.79Zm-7,26.61a2.27,2.27,0,0,0,2.54,2.49c1.66,0,2.89-.79,4.51-2.19V363.91c-1.62-1.45-2.84-2.32-4.38-2.32s-2.67.74-2.67,2.49v15.67Z" transform="translate(8.5 -16.3)"/><path class="cls-4" d="M178.79,379c0,3.2-1.66,4.86-4.86,4.86h-0.53c-3.24,0-4.86-1.66-4.86-4.86V364.87c0-3.2,1.62-4.86,4.86-4.86h0.53c3.19,0,4.86,1.66,4.86,4.86v6.91a0.8,0.8,0,0,1-.83.83h-7.75V379c0,2.14,1,3.24,3.24,3.24h0.48c2.14,0,3.24-1.09,3.24-3.24v-2.1a0.72,0.72,0,0,1,.79-0.74H178a0.71,0.71,0,0,1,.74.74V379Zm-8.58-14.13V371h6.91v-6.21c0-2.14-1.09-3.24-3.46-3.24S170.21,362.68,170.21,364.82Z" transform="translate(8.5 -16.3)"/><path class="cls-3" d="M189.73,383.73h-0.09a0.74,0.74,0,0,1-.79-0.79V361.76h-1.18a0.69,0.69,0,0,1-.7-0.7V361a0.7,0.7,0,0,1,.7-0.74h1.18v-3.85c0-2.54,1.14-3.85,3.68-3.85h0.74a0.74,0.74,0,0,1,.79.7v0.13a0.75,0.75,0,0,1-.79.74h-0.7c-1.44,0-2.06.74-2.06,2.23v3.89h2.67a0.69,0.69,0,0,1,.7.7V361a0.7,0.7,0,0,1-.7.74h-2.67v21.18A0.74,0.74,0,0,1,189.73,383.73Z" transform="translate(8.5 -16.3)"/><path class="cls-3" d="M199.27,383.82h-0.92c-3.2,0-4.81-1.62-4.81-4.81V364.82c0-3.2,1.62-4.81,4.81-4.81h0.92c3.15,0,4.77,1.62,4.77,4.81V379C204,382.2,202.42,383.82,199.27,383.82Zm0-22.23h-0.83c-2.14,0-3.2,1.05-3.2,3.2V379c0,2.14,1.05,3.2,3.2,3.2h0.83c2.14,0,3.19-1.05,3.19-3.2V364.78C202.42,362.64,201.37,361.59,199.22,361.59Z" transform="translate(8.5 -16.3)"/><path class="cls-3" d="M207.1,383.73a0.74,0.74,0,0,1-.79-0.79v-22.1a0.72,0.72,0,0,1,.79-0.74h0.09a0.71,0.71,0,0,1,.74.74v1.58c1-1.18,2.54-2.41,3.59-2.41a0.78,0.78,0,0,1,.88.79,1.06,1.06,0,0,1-1,1,8.1,8.1,0,0,0-3.46,2.19v18.95a0.73,0.73,0,0,1-.74.79H207.1Z" transform="translate(8.5 -16.3)"/><path class="cls-5" d="M226.18,382.42a1.13,1.13,0,0,1-1.27,1.27h-0.09a1.13,1.13,0,0,1-1.27-1.27V373.1l-4.73-18.64a1.14,1.14,0,0,1,1.23-1.58h0.09a1.12,1.12,0,0,1,1.22,1l3.5,15.45,3.59-15.49a1.08,1.08,0,0,1,1.18-.92h0.09a1.06,1.06,0,0,1,1.14,1.49L226.18,373v9.45Z" transform="translate(8.5 -16.3)"/><path class="cls-5" d="M243.82,378.48c0,3.54-1.79,5.38-5.38,5.38H237c-3.59,0-5.38-1.84-5.38-5.38V358c0-3.5,1.8-5.34,5.38-5.34h1.4c3.59,0,5.38,1.84,5.38,5.34v20.44ZM241.19,358c0-1.88-.92-2.8-2.84-2.8h-1.23c-1.93,0-2.84.92-2.84,2.8v20.66c0,1.88.92,2.8,2.84,2.8h1.23c1.92,0,2.84-.92,2.84-2.8V358Z" transform="translate(8.5 -16.3)"/><path class="cls-5" d="M254.75,382.77l-6.21-14.31v14a1.13,1.13,0,0,1-1.27,1.27h-0.09a1.13,1.13,0,0,1-1.27-1.27V354.15a1.13,1.13,0,0,1,1.27-1.27h0.09a1.13,1.13,0,0,1,1.27,1.27v13.74L254.93,354a1.45,1.45,0,0,1,1.31-1.09,1.19,1.19,0,0,1,1.18,1.71L251.12,368l6.13,13.87A1.32,1.32,0,1,1,254.75,382.77Z" transform="translate(8.5 -16.3)"/><path class="cls-5" d="M270.42,378.48c0,3.54-1.79,5.38-5.38,5.38h-1.4c-3.59,0-5.38-1.84-5.38-5.38V358c0-3.5,1.79-5.34,5.38-5.34H265c3.59,0,5.38,1.84,5.38,5.34v20.44ZM267.79,358c0-1.88-.92-2.8-2.84-2.8h-1.23c-1.92,0-2.84.92-2.84,2.8v20.66c0,1.88.92,2.8,2.84,2.8H265c1.93,0,2.84-.92,2.84-2.8V358Z" transform="translate(8.5 -16.3)"/><path class="cls-5" d="M275.15,366.75h6.74v-12.6a1.13,1.13,0,0,1,1.27-1.27h0.09a1.13,1.13,0,0,1,1.27,1.27v28.27a1.13,1.13,0,0,1-1.27,1.27h-0.09a1.13,1.13,0,0,1-1.27-1.27V369.2h-6.74v13.22a1.13,1.13,0,0,1-1.27,1.27h-0.09a1.13,1.13,0,0,1-1.27-1.27V354.15a1.13,1.13,0,0,1,1.27-1.27h0.09a1.13,1.13,0,0,1,1.27,1.27v12.6Z" transform="translate(8.5 -16.3)"/><path class="cls-5" d="M297.42,383.69a1.11,1.11,0,0,1-1.18-1l-0.74-4.86H289l-0.74,4.86a1.11,1.11,0,0,1-1.18,1H287a1.1,1.1,0,0,1-1.23-1.4L290.46,354a1.3,1.3,0,0,1,1.44-1.23h0.7A1.3,1.3,0,0,1,294,354l4.68,28.27a1.1,1.1,0,0,1-1.23,1.4h-0.09Zm-2.32-8.31-2.84-18.29-2.89,18.29h5.73Z" transform="translate(8.5 -16.3)"/><path class="cls-5" d="M302.5,377.47v5a1.09,1.09,0,0,1-1.18,1.22h-0.09a1.11,1.11,0,0,1-1.23-1.22V354.32a1.31,1.31,0,0,1,1.44-1.45h1.22a1.28,1.28,0,0,1,1.4,1.18l4.81,25,4.81-25a1.29,1.29,0,0,1,1.4-1.18h1.18a1.31,1.31,0,0,1,1.44,1.45v28.1a1.12,1.12,0,0,1-1.22,1.27h-0.09a1.13,1.13,0,0,1-1.27-1.27v-5l0.09-19.87-4.9,25a1.28,1.28,0,0,1-1.4,1.18h-0.22a1.28,1.28,0,0,1-1.4-1.18l-4.9-25.08Z" transform="translate(8.5 -16.3)"/><path class="cls-5" d="M330.63,383.69a1.11,1.11,0,0,1-1.18-1l-0.75-4.86h-6.48l-0.74,4.86a1.11,1.11,0,0,1-1.18,1h-0.09a1.1,1.1,0,0,1-1.23-1.4L323.67,354a1.3,1.3,0,0,1,1.44-1.23h0.7a1.3,1.3,0,0,1,1.44,1.23l4.68,28.27a1.1,1.1,0,0,1-1.22,1.4h-0.09Zm-2.32-8.31-2.84-18.29-2.89,18.29h5.73Z" transform="translate(8.5 -16.3)"/><path class="cls-2" d="M96.8,492.66a9,9,0,0,0,7.42,0,18.64,18.64,0,0,0,7.46-6.53,4.42,4.42,0,0,0-.24-5.44c-1.39-1.87-6.15-5.25-13.32-5.25-8.18,0-12,3.16-13.47,4.32s-1.85,3.26,0,5.33C87.1,487.88,93.84,491.43,96.8,492.66Z" transform="translate(8.5 -16.3)"/><path class="cls-2" d="M98.84,502.87c-0.71-3.11-2.17-4.55-4.29-6.3-2.42-2-8.83-6.66-12.78-6.66-2.48,0-4.27.84-5.17,3.15,0,0-.88,1.35-0.88,5,0,12,9.43,20.77,17.78,20.77,2.33,0,3.72-1.24,4.49-3.64C99.07,511.82,99.39,505.31,98.84,502.87Z" transform="translate(8.5 -16.3)"/><path class="cls-2" d="M106.07,496.69a10.37,10.37,0,0,0-3.12,6.67c-0.06,2.63-.31,7.15.45,10.24,0.59,2.41,1.68,2.94,4.13,1.7,3.43-1.74,11.52-8.06,11.52-18.13,0-5.29-2.42-6.92-5.07-6C112,491.83,107.66,495,106.07,496.69Z" transform="translate(8.5 -16.3)"/><path class="cls-4" d="M54.74,541.25a0.35,0.35,0,0,1-.37-0.37v-1.36a1.32,1.32,0,0,0-1.5-1.5H52.57a1.32,1.32,0,0,0-1.5,1.5v6.72a1.32,1.32,0,0,0,1.5,1.5h0.31a1.32,1.32,0,0,0,1.5-1.5v-1.71a0.34,0.34,0,0,1,.37-0.35h0a0.34,0.34,0,0,1,.35.35v1.69a2,2,0,0,1-2.25,2.27H52.55a2,2,0,0,1-2.27-2.27v-6.68a2,2,0,0,1,2.27-2.27h0.33a2,2,0,0,1,2.25,2.25v1.36a0.34,0.34,0,0,1-.35.37h0Z" transform="translate(8.5 -16.3)"/><path class="cls-4" d="M58.8,548.48H58.37a2,2,0,0,1-2.27-2.27v-6.68a2,2,0,0,1,2.27-2.27H58.8A2,2,0,0,1,61,539.54v6.68A2,2,0,0,1,58.8,548.48Zm0-10.47H58.39a1.32,1.32,0,0,0-1.5,1.5v6.72a1.32,1.32,0,0,0,1.5,1.5h0.39a1.32,1.32,0,0,0,1.5-1.5v-6.72A1.32,1.32,0,0,0,58.78,538Z" transform="translate(8.5 -16.3)"/><path class="cls-4" d="M66.1,534a0.34,0.34,0,0,1,.37-0.35h0a0.33,0.33,0,0,1,.35.35v14a0.34,0.34,0,0,1-.35.37h0a0.35,0.35,0,0,1-.37-0.37v-0.52a3.21,3.21,0,0,1-2.16.93A1.68,1.68,0,0,1,62,546.65V539.1a1.67,1.67,0,0,1,1.92-1.83,3.25,3.25,0,0,1,2.16.91V534Zm-3.32,12.53a1.07,1.07,0,0,0,1.2,1.17,3.17,3.17,0,0,0,2.12-1V539.1A3.19,3.19,0,0,0,64,538a1.09,1.09,0,0,0-1.26,1.17v7.38Z" transform="translate(8.5 -16.3)"/><path class="cls-4" d="M72.34,546.19a2,2,0,0,1-2.29,2.29H69.8a2,2,0,0,1-2.29-2.29v-6.64a2,2,0,0,1,2.29-2.29h0.25a2,2,0,0,1,2.29,2.29v3.26a0.38,0.38,0,0,1-.39.39H68.3v3a1.35,1.35,0,0,0,1.53,1.53h0.23a1.35,1.35,0,0,0,1.53-1.53v-1a0.34,0.34,0,0,1,.37-0.35h0a0.34,0.34,0,0,1,.35.35v1Zm-4-6.66v2.93h3.26v-2.93A1.63,1.63,0,0,0,68.3,539.54Z" transform="translate(8.5 -16.3)"/><path class="cls-3" d="M77.49,548.44h0a0.35,0.35,0,0,1-.37-0.37v-10H76.52a0.32,0.32,0,0,1-.33-0.33v0a0.33,0.33,0,0,1,.33-0.35h0.56v-1.81a1.56,1.56,0,0,1,1.73-1.81h0.35a0.35,0.35,0,0,1,.37.33v0.06a0.35,0.35,0,0,1-.37.35H78.83a0.88,0.88,0,0,0-1,1.05v1.83h1.26a0.33,0.33,0,0,1,.33.33v0a0.33,0.33,0,0,1-.33.35H77.86v10A0.35,0.35,0,0,1,77.49,548.44Z" transform="translate(8.5 -16.3)"/><path class="cls-3" d="M82,548.48H81.55a2,2,0,0,1-2.27-2.27v-6.68a2,2,0,0,1,2.27-2.27H82a2,2,0,0,1,2.25,2.27v6.68A2,2,0,0,1,82,548.48ZM82,538H81.57a1.33,1.33,0,0,0-1.51,1.5v6.72a1.33,1.33,0,0,0,1.51,1.5H82a1.32,1.32,0,0,0,1.5-1.5v-6.72A1.32,1.32,0,0,0,82,538Z" transform="translate(8.5 -16.3)"/><path class="cls-3" d="M85.68,548.44a0.35,0.35,0,0,1-.37-0.37V537.66a0.34,0.34,0,0,1,.37-0.35h0a0.34,0.34,0,0,1,.35.35v0.74a3,3,0,0,1,1.69-1.13,0.37,0.37,0,0,1,.41.37,0.5,0.5,0,0,1-.47.47,3.8,3.8,0,0,0-1.63,1v8.93a0.34,0.34,0,0,1-.35.37h0Z" transform="translate(8.5 -16.3)"/><path class="cls-5" d="M94.66,547.82a0.53,0.53,0,0,1-.6.6h0a0.53,0.53,0,0,1-.6-0.6v-4.39l-2.23-8.78a0.54,0.54,0,0,1,.58-0.74h0a0.53,0.53,0,0,1,.58.45L94,541.64l1.69-7.3a0.51,0.51,0,0,1,.56-0.43h0a0.5,0.5,0,0,1,.54.7l-2.21,8.76v4.45Z" transform="translate(8.5 -16.3)"/><path class="cls-5" d="M103,546a2.25,2.25,0,0,1-2.54,2.54H99.77A2.25,2.25,0,0,1,97.24,546v-9.63a2.24,2.24,0,0,1,2.54-2.51h0.66a2.24,2.24,0,0,1,2.54,2.51V546Zm-1.24-9.67a1.17,1.17,0,0,0-1.34-1.32H99.82a1.17,1.17,0,0,0-1.34,1.32V546a1.17,1.17,0,0,0,1.34,1.32h0.58a1.17,1.17,0,0,0,1.34-1.32V536.3Z" transform="translate(8.5 -16.3)"/><path class="cls-5" d="M108.12,548l-2.93-6.74v6.58a0.53,0.53,0,0,1-.6.6h0a0.53,0.53,0,0,1-.6-0.6V534.51a0.53,0.53,0,0,1,.6-0.6h0a0.53,0.53,0,0,1,.6.6V541l3-6.56a0.68,0.68,0,0,1,.62-0.52,0.56,0.56,0,0,1,.56.8l-3,6.33,2.89,6.54A0.62,0.62,0,1,1,108.12,548Z" transform="translate(8.5 -16.3)"/><path class="cls-5" d="M115.5,546A2.25,2.25,0,0,1,113,548.5h-0.66a2.25,2.25,0,0,1-2.54-2.54v-9.63a2.24,2.24,0,0,1,2.54-2.51H113a2.24,2.24,0,0,1,2.54,2.51V546Zm-1.24-9.67a1.17,1.17,0,0,0-1.34-1.32h-0.58A1.17,1.17,0,0,0,111,536.3V546a1.17,1.17,0,0,0,1.34,1.32h0.58a1.17,1.17,0,0,0,1.34-1.32V536.3Z" transform="translate(8.5 -16.3)"/><path class="cls-5" d="M117.73,540.44h3.18v-5.94a0.53,0.53,0,0,1,.6-0.6h0a0.53,0.53,0,0,1,.6.6v13.32a0.53,0.53,0,0,1-.6.6h0a0.53,0.53,0,0,1-.6-0.6V541.6h-3.18v6.23a0.53,0.53,0,0,1-.6.6h0a0.53,0.53,0,0,1-.6-0.6V534.51a0.53,0.53,0,0,1,.6-0.6h0a0.53,0.53,0,0,1,.6.6v5.94Z" transform="translate(8.5 -16.3)"/><path class="cls-5" d="M128.22,548.42a0.52,0.52,0,0,1-.56-0.47l-0.35-2.29h-3.05l-0.35,2.29a0.52,0.52,0,0,1-.56.47h0a0.52,0.52,0,0,1-.58-0.66l2.21-13.32a0.61,0.61,0,0,1,.68-0.58H126a0.62,0.62,0,0,1,.68.58l2.21,13.32a0.52,0.52,0,0,1-.58.66h0Zm-1.09-3.92-1.34-8.62-1.36,8.62h2.7Z" transform="translate(8.5 -16.3)"/><path class="cls-5" d="M130.61,545.49v2.35a0.51,0.51,0,0,1-.55.58h0a0.52,0.52,0,0,1-.58-0.58V534.59a0.62,0.62,0,0,1,.68-0.68h0.58a0.6,0.6,0,0,1,.66.56l2.27,11.77,2.27-11.77a0.61,0.61,0,0,1,.66-0.56h0.56a0.62,0.62,0,0,1,.68.68v13.23a0.53,0.53,0,0,1-.58.6h0a0.53,0.53,0,0,1-.6-0.6v-2.37l0-9.36-2.31,11.77a0.6,0.6,0,0,1-.66.56h-0.1a0.6,0.6,0,0,1-.66-0.56l-2.31-11.81Z" transform="translate(8.5 -16.3)"/><path class="cls-5" d="M143.86,548.42a0.52,0.52,0,0,1-.56-0.47L143,545.66h-3.05l-0.35,2.29a0.53,0.53,0,0,1-.56.47h0a0.52,0.52,0,0,1-.58-0.66l2.2-13.32a0.61,0.61,0,0,1,.68-0.58h0.33a0.62,0.62,0,0,1,.68.58l2.21,13.32a0.52,0.52,0,0,1-.58.66h0Zm-1.09-3.92-1.34-8.62-1.36,8.62h2.7Z" transform="translate(8.5 -16.3)"/><path class="cls-13" d="M154.44,703a9.5,9.5,0,0,0,7.88,0,19.78,19.78,0,0,0,7.92-6.93,4.7,4.7,0,0,0-.26-5.77c-1.48-2-6.53-5.57-14.14-5.57-8.69,0-12.69,3.36-14.3,4.59s-2,3.46,0,5.66C144.15,698,151.3,701.73,154.44,703Z" transform="translate(8.5 -16.3)"/><path class="cls-13" d="M156.61,713.87c-0.75-3.3-2.31-4.83-4.56-6.68-2.57-2.12-9.37-7.07-13.56-7.07-2.64,0-4.53.89-5.49,3.35,0,0-.93,1.44-0.93,5.32,0,12.7,10,22,18.88,22,2.48,0,3.95-1.31,4.76-3.86C156.85,723.38,157.19,716.46,156.61,713.87Z" transform="translate(8.5 -16.3)"/><path class="cls-13" d="M164.29,707.31a11,11,0,0,0-3.31,7.08c-0.06,2.79-.33,7.58.48,10.87,0.63,2.56,1.78,3.12,4.38,1.8,3.64-1.85,12.23-8.56,12.23-19.24,0-5.61-2.57-7.35-5.38-6.39C170.57,702.15,166,705.56,164.29,707.31Z" transform="translate(8.5 -16.3)"/><path class="cls-8" d="M109.79,754.61a0.37,0.37,0,0,1-.39-0.39v-1.45a1.41,1.41,0,0,0-1.6-1.6H107.5a1.41,1.41,0,0,0-1.6,1.6v7.13a1.41,1.41,0,0,0,1.6,1.6h0.33a1.41,1.41,0,0,0,1.6-1.6v-1.81a0.36,0.36,0,0,1,.39-0.37h0a0.36,0.36,0,0,1,.37.37v1.79a2.13,2.13,0,0,1-2.39,2.41h-0.37a2.13,2.13,0,0,1-2.41-2.41V752.8a2.13,2.13,0,0,1,2.41-2.41h0.35a2.11,2.11,0,0,1,2.38,2.38v1.45a0.36,0.36,0,0,1-.37.39h0Z" transform="translate(8.5 -16.3)"/><path class="cls-8" d="M114.1,762.29h-0.46a2.13,2.13,0,0,1-2.41-2.41V752.8a2.13,2.13,0,0,1,2.41-2.41h0.46a2.13,2.13,0,0,1,2.39,2.41v7.09A2.13,2.13,0,0,1,114.1,762.29Zm0-11.12h-0.42a1.41,1.41,0,0,0-1.6,1.6v7.13a1.41,1.41,0,0,0,1.6,1.6h0.42a1.41,1.41,0,0,0,1.6-1.6v-7.13A1.41,1.41,0,0,0,114.08,751.18Z" transform="translate(8.5 -16.3)"/><path class="cls-8" d="M121.85,747a0.36,0.36,0,0,1,.39-0.37h0a0.35,0.35,0,0,1,.37.37v14.9a0.36,0.36,0,0,1-.37.39h0a0.37,0.37,0,0,1-.39-0.39v-0.55a3.41,3.41,0,0,1-2.3,1,1.78,1.78,0,0,1-2-1.95v-8a1.77,1.77,0,0,1,2-1.95,3.45,3.45,0,0,1,2.3,1V747Zm-3.52,13.3a1.14,1.14,0,0,0,1.27,1.25,3.36,3.36,0,0,0,2.25-1.09v-8.07a3.38,3.38,0,0,0-2.19-1.16,1.16,1.16,0,0,0-1.33,1.25v7.83Z" transform="translate(8.5 -16.3)"/><path class="cls-8" d="M128.48,759.86a2.17,2.17,0,0,1-2.43,2.43h-0.26a2.16,2.16,0,0,1-2.43-2.43v-7a2.15,2.15,0,0,1,2.43-2.43H126a2.16,2.16,0,0,1,2.43,2.43v3.46a0.4,0.4,0,0,1-.42.41h-3.87v3.19a1.43,1.43,0,0,0,1.62,1.62H126a1.44,1.44,0,0,0,1.62-1.62v-1a0.36,0.36,0,0,1,.39-0.37h0a0.36,0.36,0,0,1,.37.37v1Zm-4.29-7.07v3.11h3.46V752.8A1.73,1.73,0,0,0,124.19,752.8Z" transform="translate(8.5 -16.3)"/><path class="cls-7" d="M133.95,762.25h0a0.37,0.37,0,0,1-.39-0.39V751.26h-0.59a0.34,0.34,0,0,1-.35-0.35v0a0.35,0.35,0,0,1,.35-0.37h0.59v-1.92a1.65,1.65,0,0,1,1.84-1.93h0.37a0.37,0.37,0,0,1,.39.35v0.07a0.37,0.37,0,0,1-.39.37h-0.35a0.94,0.94,0,0,0-1,1.12v1.95h1.33a0.35,0.35,0,0,1,.35.35v0a0.35,0.35,0,0,1-.35.37h-1.33v10.59A0.37,0.37,0,0,1,133.95,762.25Z" transform="translate(8.5 -16.3)"/><path class="cls-7" d="M138.72,762.29h-0.46a2.13,2.13,0,0,1-2.41-2.41V752.8a2.13,2.13,0,0,1,2.41-2.41h0.46a2.13,2.13,0,0,1,2.39,2.41v7.09A2.13,2.13,0,0,1,138.72,762.29Zm0-11.12h-0.42a1.41,1.41,0,0,0-1.6,1.6v7.13a1.41,1.41,0,0,0,1.6,1.6h0.42a1.41,1.41,0,0,0,1.6-1.6v-7.13A1.41,1.41,0,0,0,138.7,751.18Z" transform="translate(8.5 -16.3)"/><path class="cls-7" d="M142.63,762.25a0.37,0.37,0,0,1-.39-0.39V750.8a0.36,0.36,0,0,1,.39-0.37h0a0.36,0.36,0,0,1,.37.37v0.79a3.14,3.14,0,0,1,1.79-1.2,0.39,0.39,0,0,1,.44.39,0.53,0.53,0,0,1-.5.5,4,4,0,0,0-1.73,1.09v9.47a0.36,0.36,0,0,1-.37.39h0Z" transform="translate(8.5 -16.3)"/><path class="cls-8" d="M152.17,761.59a0.57,0.57,0,0,1-.63.63h0a0.57,0.57,0,0,1-.63-0.63v-4.66l-2.36-9.32a0.57,0.57,0,0,1,.61-0.79h0a0.56,0.56,0,0,1,.61.48l1.75,7.72,1.79-7.75a0.54,0.54,0,0,1,.59-0.46h0a0.53,0.53,0,0,1,.57.74l-2.34,9.3v4.73Z" transform="translate(8.5 -16.3)"/><path class="cls-8" d="M161,759.62a2.39,2.39,0,0,1-2.69,2.69h-0.7a2.39,2.39,0,0,1-2.69-2.69V749.4a2.38,2.38,0,0,1,2.69-2.67h0.7A2.38,2.38,0,0,1,161,749.4v10.22Zm-1.31-10.26a1.24,1.24,0,0,0-1.42-1.4h-0.61a1.24,1.24,0,0,0-1.42,1.4v10.33a1.24,1.24,0,0,0,1.42,1.4h0.61a1.24,1.24,0,0,0,1.42-1.4V749.36Z" transform="translate(8.5 -16.3)"/><path class="cls-8" d="M166.46,761.77l-3.11-7.16v7a0.57,0.57,0,0,1-.63.63h0a0.57,0.57,0,0,1-.63-0.63V747.46a0.57,0.57,0,0,1,.63-0.64h0a0.57,0.57,0,0,1,.63.64v6.87l3.19-7a0.72,0.72,0,0,1,.66-0.55,0.59,0.59,0,0,1,.59.85l-3.15,6.72,3.06,6.94A0.66,0.66,0,1,1,166.46,761.77Z" transform="translate(8.5 -16.3)"/><path class="cls-8" d="M174.29,759.62a2.39,2.39,0,0,1-2.69,2.69h-0.7a2.39,2.39,0,0,1-2.69-2.69V749.4a2.38,2.38,0,0,1,2.69-2.67h0.7a2.38,2.38,0,0,1,2.69,2.67v10.22ZM173,749.36a1.24,1.24,0,0,0-1.42-1.4h-0.61a1.24,1.24,0,0,0-1.42,1.4v10.33a1.24,1.24,0,0,0,1.42,1.4h0.61a1.24,1.24,0,0,0,1.42-1.4V749.36Z" transform="translate(8.5 -16.3)"/><path class="cls-8" d="M176.66,753.76H180v-6.3a0.57,0.57,0,0,1,.63-0.64h0a0.57,0.57,0,0,1,.63.64v14.13a0.57,0.57,0,0,1-.63.63h0a0.57,0.57,0,0,1-.63-0.63V755h-3.37v6.61a0.57,0.57,0,0,1-.63.63h0a0.57,0.57,0,0,1-.63-0.63V747.46a0.57,0.57,0,0,1,.63-0.64h0a0.57,0.57,0,0,1,.63.64v6.3Z" transform="translate(8.5 -16.3)"/><path class="cls-8" d="M187.79,762.23a0.56,0.56,0,0,1-.59-0.5l-0.37-2.43h-3.24l-0.37,2.43a0.55,0.55,0,0,1-.59.5h0a0.55,0.55,0,0,1-.61-0.7l2.34-14.13a0.65,0.65,0,0,1,.72-0.61h0.35a0.65,0.65,0,0,1,.72.61l2.34,14.13a0.55,0.55,0,0,1-.61.7h0Zm-1.16-4.16-1.42-9.15-1.45,9.15h2.87Z" transform="translate(8.5 -16.3)"/><path class="cls-8" d="M190.33,759.12v2.49a0.55,0.55,0,0,1-.59.61h0a0.55,0.55,0,0,1-.61-0.61V747.54a0.66,0.66,0,0,1,.72-0.72h0.61a0.64,0.64,0,0,1,.7.59l2.41,12.49,2.41-12.49a0.64,0.64,0,0,1,.7-0.59h0.59a0.66,0.66,0,0,1,.72.72v14a0.56,0.56,0,0,1-.61.63h0a0.57,0.57,0,0,1-.64-0.63v-2.52l0-9.93-2.45,12.49a0.64,0.64,0,0,1-.7.59h-0.11a0.64,0.64,0,0,1-.7-0.59l-2.45-12.54Z" transform="translate(8.5 -16.3)"/><path class="cls-8" d="M204.4,762.23a0.56,0.56,0,0,1-.59-0.5l-0.37-2.43H200.2l-0.37,2.43a0.56,0.56,0,0,1-.59.5h0a0.55,0.55,0,0,1-.61-0.7l2.34-14.13a0.65,0.65,0,0,1,.72-0.61H202a0.65,0.65,0,0,1,.72.61l2.34,14.13a0.55,0.55,0,0,1-.61.7h0Zm-1.16-4.16-1.42-9.15-1.44,9.15h2.87Z" transform="translate(8.5 -16.3)"/><path class="cls-13" d="M122.51,777.34a0.18,0.18,0,0,1-.19.2h0a0.19,0.19,0,0,1-.2-0.2v-7.58a0.18,0.18,0,0,1,.2-0.19h0a0.18,0.18,0,0,1,.19.19V772a1.74,1.74,0,0,1,1.17-.5,0.87,0.87,0,0,1,1,1v4.86a0.18,0.18,0,0,1-.19.2h0a0.19,0.19,0,0,1-.2-0.2v-4.79a0.56,0.56,0,0,0-.62-0.63,1.86,1.86,0,0,0-1.15.58v4.85Z" transform="translate(8.5 -16.3)"/><path class="cls-13" d="M126.2,777.54h0a0.19,0.19,0,0,1-.2-0.2V772h-0.31a0.18,0.18,0,0,1-.19-0.19v0a0.18,0.18,0,0,1,.19-0.18H126v-0.83a0.19,0.19,0,0,1,.2-0.2h0a0.19,0.19,0,0,1,.2.2v0.83H127a0.18,0.18,0,0,1,.18.18v0a0.18,0.18,0,0,1-.18.19H126.4v5.38A0.19,0.19,0,0,1,126.2,777.54Z" transform="translate(8.5 -16.3)"/><path class="cls-13" d="M128.33,777.54h0a0.19,0.19,0,0,1-.2-0.2V772h-0.31a0.18,0.18,0,0,1-.19-0.19v0a0.18,0.18,0,0,1,.19-0.18h0.31v-0.83a0.19,0.19,0,0,1,.2-0.2h0a0.19,0.19,0,0,1,.2.2v0.83h0.63a0.18,0.18,0,0,1,.18.18v0a0.18,0.18,0,0,1-.18.19h-0.63v5.38A0.19,0.19,0,0,1,128.33,777.54Z" transform="translate(8.5 -16.3)"/><path class="cls-13" d="M131.59,771.51a0.91,0.91,0,0,1,1,1v4.07a0.9,0.9,0,0,1-1,1,1.76,1.76,0,0,1-1.17-.49v1.5a0.18,0.18,0,0,1-.19.19h0a0.18,0.18,0,0,1-.2-0.19v-6.85a0.18,0.18,0,0,1,.2-0.19h0a0.18,0.18,0,0,1,.19.19V772A1.74,1.74,0,0,1,131.59,771.51Zm0.62,1a0.58,0.58,0,0,0-.64-0.63,1.71,1.71,0,0,0-1.15.57v4.11a1.68,1.68,0,0,0,1.11.58,0.59,0.59,0,0,0,.68-0.63v-4Z" transform="translate(8.5 -16.3)"/><path class="cls-13" d="M133.7,771.52a0.2,0.2,0,0,1,.21.21v0.58a0.2,0.2,0,0,1-.21.21h0a0.2,0.2,0,0,1-.21-0.21v-0.58a0.2,0.2,0,0,1,.21-0.21h0Zm0,5a0.2,0.2,0,0,1,.21.21v0.58a0.2,0.2,0,0,1-.21.21h0a0.2,0.2,0,0,1-.21-0.21v-0.58a0.2,0.2,0,0,1,.21-0.21h0Z" transform="translate(8.5 -16.3)"/><path class="cls-13" d="M136.18,769.33a0.17,0.17,0,0,1,.18.21L135,777.75a0.16,0.16,0,0,1-.17.14h0a0.17,0.17,0,0,1-.18-0.21l1.39-8.21a0.16,0.16,0,0,1,.17-0.14h0Z" transform="translate(8.5 -16.3)"/><path class="cls-13" d="M138.59,769.33a0.17,0.17,0,0,1,.18.21l-1.39,8.21a0.16,0.16,0,0,1-.17.14h0a0.17,0.17,0,0,1-.18-0.21l1.39-8.21a0.16,0.16,0,0,1,.17-0.14h0Z" transform="translate(8.5 -16.3)"/><path class="cls-13" d="M142,773.66a0.19,0.19,0,0,1-.2-0.2v-0.73a0.71,0.71,0,0,0-.81-0.81H140.8a0.71,0.71,0,0,0-.81.81v3.63a0.71,0.71,0,0,0,.81.81H141a0.71,0.71,0,0,0,.81-0.81v-0.92a0.18,0.18,0,0,1,.2-0.19h0a0.18,0.18,0,0,1,.19.19v0.91a1.08,1.08,0,0,1-1.21,1.22h-0.19a1.08,1.08,0,0,1-1.22-1.22v-3.6a1.08,1.08,0,0,1,1.22-1.22H141a1.07,1.07,0,0,1,1.21,1.21v0.73a0.18,0.18,0,0,1-.19.2h0Z" transform="translate(8.5 -16.3)"/><path class="cls-13" d="M144.6,777.56h-0.23a1.08,1.08,0,0,1-1.22-1.22v-3.6a1.08,1.08,0,0,1,1.22-1.22h0.23a1.08,1.08,0,0,1,1.21,1.22v3.6A1.08,1.08,0,0,1,144.6,777.56Zm0-5.65h-0.21a0.71,0.71,0,0,0-.81.81v3.63a0.71,0.71,0,0,0,.81.81h0.21a0.71,0.71,0,0,0,.81-0.81v-3.63A0.71,0.71,0,0,0,144.59,771.91Z" transform="translate(8.5 -16.3)"/><path class="cls-13" d="M149,769.76a0.18,0.18,0,0,1,.2-0.19h0a0.18,0.18,0,0,1,.19.19v7.58a0.18,0.18,0,0,1-.19.2h0a0.19,0.19,0,0,1-.2-0.2v-0.28a1.73,1.73,0,0,1-1.17.5,0.91,0.91,0,0,1-1-1V772.5a0.9,0.9,0,0,1,1-1A1.75,1.75,0,0,1,149,772v-2.24Zm-1.79,6.76a0.58,0.58,0,0,0,.65.63,1.71,1.71,0,0,0,1.15-.56v-4.1a1.72,1.72,0,0,0-1.11-.59,0.59,0.59,0,0,0-.68.63v4Z" transform="translate(8.5 -16.3)"/><path class="cls-13" d="M153,776.33a1.1,1.1,0,0,1-1.23,1.23h-0.13a1.1,1.1,0,0,1-1.23-1.23v-3.58a1.1,1.1,0,0,1,1.23-1.24h0.13a1.1,1.1,0,0,1,1.23,1.24v1.76a0.2,0.2,0,0,1-.21.21h-2v1.62a0.73,0.73,0,0,0,.82.82h0.12a0.73,0.73,0,0,0,.82-0.82V775.8a0.18,0.18,0,0,1,.2-0.19h0a0.18,0.18,0,0,1,.19.19v0.52Zm-2.18-3.59v1.58h1.76v-1.58A0.88,0.88,0,0,0,150.85,772.73Z" transform="translate(8.5 -16.3)"/><path class="cls-13" d="M155.76,769.8a0.22,0.22,0,0,1,.2-0.13h0.19a0.2,0.2,0,0,1,.21.21v5.6H157a0.18,0.18,0,0,1,.18.18v0a0.18,0.18,0,0,1-.18.19h-0.59v1.49a0.18,0.18,0,0,1-.18.19h0a0.18,0.18,0,0,1-.19-0.19v-1.49h-2.07a0.23,0.23,0,0,1-.24-0.24,1,1,0,0,1,.1-0.33Zm-1.67,5.67H156v-5.2Z" transform="translate(8.5 -16.3)"/><path class="cls-13" d="M157.78,776.54a0.2,0.2,0,0,1,.21.21v0.58a0.2,0.2,0,0,1-.21.21h0a0.2,0.2,0,0,1-.21-0.21v-0.58a0.2,0.2,0,0,1,.21-0.21h0Z" transform="translate(8.5 -16.3)"/><path class="cls-13" d="M160,778.62a0.18,0.18,0,0,1-.18.14h0a0.18,0.18,0,0,1-.19-0.22l0.21-1-1.21-5.76a0.19,0.19,0,0,1,.19-0.23h0a0.18,0.18,0,0,1,.19.16l1,5.08,1-5.09a0.18,0.18,0,0,1,.18-0.14h0a0.18,0.18,0,0,1,.19.22Z" transform="translate(8.5 -16.3)"/><path class="cls-13" d="M163.67,777.56h-0.23a1.08,1.08,0,0,1-1.22-1.22v-3.6a1.08,1.08,0,0,1,1.22-1.22h0.23a1.08,1.08,0,0,1,1.21,1.22v3.6A1.08,1.08,0,0,1,163.67,777.56Zm0-5.65h-0.21a0.71,0.71,0,0,0-.81.81v3.63a0.71,0.71,0,0,0,.81.81h0.21a0.71,0.71,0,0,0,.81-0.81v-3.63A0.71,0.71,0,0,0,163.66,771.91Z" transform="translate(8.5 -16.3)"/><path class="cls-13" d="M168.1,777.54a0.18,0.18,0,0,1-.17-0.1l-1.61-2.9v2.8a0.18,0.18,0,0,1-.19.2h0a0.19,0.19,0,0,1-.2-0.2v-7.58a0.18,0.18,0,0,1,.2-0.19h0a0.18,0.18,0,0,1,.19.19v4.69l1.66-2.84a0.18,0.18,0,0,1,.16-0.09h0a0.18,0.18,0,0,1,.17.29l-1.58,2.64,1.56,2.78A0.2,0.2,0,0,1,168.1,777.54Z" transform="translate(8.5 -16.3)"/><path class="cls-13" d="M170.54,777.56H170.3a1.08,1.08,0,0,1-1.22-1.22v-3.6a1.08,1.08,0,0,1,1.22-1.22h0.23a1.08,1.08,0,0,1,1.21,1.22v3.6A1.08,1.08,0,0,1,170.54,777.56Zm0-5.65h-0.21a0.71,0.71,0,0,0-.81.81v3.63a0.71,0.71,0,0,0,.81.81h0.21a0.71,0.71,0,0,0,.81-0.81v-3.63A0.71,0.71,0,0,0,170.53,771.91Z" transform="translate(8.5 -16.3)"/><path class="cls-13" d="M173.18,777.34a0.18,0.18,0,0,1-.19.2h0a0.19,0.19,0,0,1-.2-0.2v-7.58a0.18,0.18,0,0,1,.2-0.19h0a0.18,0.18,0,0,1,.19.19V772a1.74,1.74,0,0,1,1.17-.5,0.87,0.87,0,0,1,1,1v4.86a0.18,0.18,0,0,1-.19.2h0a0.19,0.19,0,0,1-.2-0.2v-4.79a0.56,0.56,0,0,0-.62-0.63,1.86,1.86,0,0,0-1.15.58v4.85Z" transform="translate(8.5 -16.3)"/><path class="cls-13" d="M178.45,777.08a1.84,1.84,0,0,1-1.13.48,0.84,0.84,0,0,1-1-.95v-1.1a1.11,1.11,0,0,1,.88-1.18l1.22-.47v-1.22a0.68,0.68,0,0,0-.8-0.73,0.7,0.7,0,0,0-.83.73v0.62a0.18,0.18,0,0,1-.19.2h0a0.19,0.19,0,0,1-.2-0.2v-0.61a1.07,1.07,0,0,1,1.25-1.15,1,1,0,0,1,1.22,1.15v4.68a0.19,0.19,0,0,1-.2.2h0a0.19,0.19,0,0,1-.2-0.2v-0.26Zm-1.06.08h0a1.76,1.76,0,0,0,1-.52v-2.38l-1.06.42a0.79,0.79,0,0,0-.62.84v1A0.54,0.54,0,0,0,177.39,777.16Z" transform="translate(8.5 -16.3)"/><path class="cls-13" d="M180.35,772.48v4.86a0.18,0.18,0,0,1-.19.2h0a0.19,0.19,0,0,1-.2-0.2v-5.62a0.18,0.18,0,0,1,.2-0.19h0a0.18,0.18,0,0,1,.19.19V772a1.75,1.75,0,0,1,1.16-.5,0.83,0.83,0,0,1,.88.52,1.76,1.76,0,0,1,1.19-.52,0.86,0.86,0,0,1,1,.92v4.91a0.19,0.19,0,0,1-.2.2h0a0.19,0.19,0,0,1-.2-0.2v-4.83a0.55,0.55,0,0,0-.62-0.61,1.69,1.69,0,0,0-1.06.53v4.91a0.19,0.19,0,0,1-.2.2h0a0.19,0.19,0,0,1-.2-0.2v-4.83a0.55,0.55,0,0,0-.6-0.61A1.93,1.93,0,0,0,180.35,772.48Z" transform="translate(8.5 -16.3)"/><path class="cls-13" d="M187.64,777.08a1.84,1.84,0,0,1-1.13.48,0.84,0.84,0,0,1-1-.95v-1.1a1.11,1.11,0,0,1,.88-1.18l1.22-.47v-1.22a0.68,0.68,0,0,0-.8-0.73,0.7,0.7,0,0,0-.83.73v0.62a0.18,0.18,0,0,1-.19.2h0a0.19,0.19,0,0,1-.2-0.2v-0.61a1.07,1.07,0,0,1,1.25-1.15,1,1,0,0,1,1.22,1.15v4.68a0.19,0.19,0,0,1-.2.2h0a0.19,0.19,0,0,1-.2-0.2v-0.26Zm-1.06.08h0a1.76,1.76,0,0,0,1-.52v-2.38l-1.06.42a0.79,0.79,0,0,0-.62.84v1A0.54,0.54,0,0,0,186.58,777.16Z" transform="translate(8.5 -16.3)"/><path class="cls-13" d="M301.68,725.87c3.17,1.32,7.08,1.67,10.27,0a25.77,25.77,0,0,0,10.32-9,6.12,6.12,0,0,0-.33-7.52c-1.93-2.59-8.51-7.26-18.42-7.26-11.32,0-16.53,4.38-18.64,6s-2.56,4.5,0,7.37C288.26,719.25,297.59,724.17,301.68,725.87Z" transform="translate(8.5 -16.3)"/><path class="cls-13" d="M304.5,740c-1-4.31-3-6.3-5.94-8.71-3.34-2.76-12.21-9.21-17.67-9.21-3.44,0-5.91,1.16-7.15,4.36,0,0-1.21,1.87-1.21,6.93,0,16.55,13,28.72,24.6,28.72,3.23,0,5.15-1.71,6.21-5C304.82,752.38,305.26,743.37,304.5,740Z" transform="translate(8.5 -16.3)"/><path class="cls-13" d="M314.5,731.45c-2.2,2.29-4.23,5.59-4.31,9.22s-0.43,9.88.62,14.16c0.82,3.33,2.32,4.07,5.71,2.35,4.74-2.41,15.94-11.15,15.94-25.07,0-7.31-3.35-9.57-7-8.33C322.7,724.72,316.7,729.16,314.5,731.45Z" transform="translate(8.5 -16.3)"/><path class="cls-8" d="M350.63,737.41a0.74,0.74,0,0,1-.79-0.79v-2.89c0-2.14-1-3.2-3.19-3.2H346c-2.14,0-3.2,1.05-3.2,3.2V748c0,2.14,1.05,3.2,3.2,3.2h0.66c2.14,0,3.2-1.05,3.2-3.2v-3.63a0.72,0.72,0,0,1,.79-0.74h0.09a0.71,0.71,0,0,1,.74.74V748c0,3.2-1.62,4.81-4.77,4.81H346c-3.2,0-4.81-1.62-4.81-4.81V733.78c0-3.2,1.62-4.81,4.81-4.81h0.7c3.2,0,4.77,1.62,4.77,4.77v2.89a0.72,0.72,0,0,1-.74.79h-0.09Z" transform="translate(8.5 -16.3)"/><path class="cls-8" d="M359.25,752.77h-0.92c-3.19,0-4.81-1.62-4.81-4.81V733.78c0-3.2,1.62-4.81,4.81-4.81h0.92c3.15,0,4.77,1.62,4.77,4.81V748C364,751.15,362.4,752.77,359.25,752.77Zm0-22.23h-0.83c-2.14,0-3.2,1.05-3.2,3.2V748c0,2.14,1.05,3.2,3.2,3.2h0.83c2.14,0,3.19-1.05,3.19-3.2V733.73C362.4,731.59,361.35,730.54,359.21,730.54Z" transform="translate(8.5 -16.3)"/><path class="cls-8" d="M374.74,722.09a0.72,0.72,0,0,1,.79-0.74h0.09a0.71,0.71,0,0,1,.74.74v29.8a0.72,0.72,0,0,1-.74.79h-0.09a0.74,0.74,0,0,1-.79-0.79V750.8c-1.53,1.23-2.71,2-4.6,2-2.71,0-4.07-1.4-4.07-3.9v-16c0-2.54,1.36-3.9,4.07-3.9a6.89,6.89,0,0,1,4.6,1.93v-8.79Zm-7,26.61a2.27,2.27,0,0,0,2.54,2.49c1.66,0,2.89-.79,4.51-2.19V732.86c-1.62-1.45-2.84-2.32-4.38-2.32s-2.67.74-2.67,2.49V748.7Z" transform="translate(8.5 -16.3)"/><path class="cls-8" d="M388,747.91c0,3.2-1.66,4.86-4.86,4.86h-0.53c-3.24,0-4.86-1.66-4.86-4.86V733.82c0-3.2,1.62-4.86,4.86-4.86h0.53c3.19,0,4.86,1.66,4.86,4.86v6.91a0.8,0.8,0,0,1-.83.83h-7.75V748c0,2.14,1,3.24,3.24,3.24h0.48c2.14,0,3.24-1.09,3.24-3.24v-2.1a0.72,0.72,0,0,1,.79-0.74h0.09a0.71,0.71,0,0,1,.74.74v2.06Zm-8.58-14.13V740h6.91v-6.21c0-2.14-1.09-3.24-3.46-3.24S379.42,731.63,379.42,733.78Z" transform="translate(8.5 -16.3)"/><path class="cls-7" d="M398.94,752.68h-0.09a0.74,0.74,0,0,1-.79-0.79V730.71h-1.18a0.69,0.69,0,0,1-.7-0.7v-0.09a0.7,0.7,0,0,1,.7-0.74h1.18v-3.85c0-2.54,1.14-3.85,3.68-3.85h0.74a0.74,0.74,0,0,1,.79.7v0.13a0.75,0.75,0,0,1-.79.74h-0.7c-1.44,0-2.06.74-2.06,2.23v3.89h2.67a0.69,0.69,0,0,1,.7.7V730a0.7,0.7,0,0,1-.7.74h-2.67v21.18A0.74,0.74,0,0,1,398.94,752.68Z" transform="translate(8.5 -16.3)"/><path class="cls-7" d="M408.48,752.77h-0.92c-3.2,0-4.81-1.62-4.81-4.81V733.78c0-3.2,1.62-4.81,4.81-4.81h0.92c3.15,0,4.77,1.62,4.77,4.81V748C413.25,751.15,411.63,752.77,408.48,752.77Zm0-22.23H407.6c-2.14,0-3.2,1.05-3.2,3.2V748c0,2.14,1.05,3.2,3.2,3.2h0.83c2.14,0,3.19-1.05,3.19-3.2V733.73C411.63,731.59,410.58,730.54,408.43,730.54Z" transform="translate(8.5 -16.3)"/><path class="cls-7" d="M416.31,752.68a0.74,0.74,0,0,1-.79-0.79v-22.1a0.72,0.72,0,0,1,.79-0.74h0.09a0.71,0.71,0,0,1,.74.74v1.58c1-1.18,2.54-2.41,3.59-2.41a0.78,0.78,0,0,1,.88.79,1.06,1.06,0,0,1-1,1,8.1,8.1,0,0,0-3.46,2.19v18.95a0.73,0.73,0,0,1-.74.79h-0.09Z" transform="translate(8.5 -16.3)"/><path class="cls-8" d="M435.39,751.37a1.13,1.13,0,0,1-1.27,1.27H434a1.13,1.13,0,0,1-1.27-1.27V742L428,723.4a1.14,1.14,0,0,1,1.23-1.58h0.09a1.12,1.12,0,0,1,1.22,1l3.5,15.45,3.59-15.49a1.08,1.08,0,0,1,1.18-.92h0.09a1.06,1.06,0,0,1,1.14,1.49l-4.68,18.6v9.45Z" transform="translate(8.5 -16.3)"/><path class="cls-8" d="M453,747.43c0,3.54-1.79,5.38-5.38,5.38h-1.4c-3.59,0-5.38-1.84-5.38-5.38V727c0-3.5,1.79-5.34,5.38-5.34h1.4c3.59,0,5.38,1.84,5.38,5.34v20.44ZM450.4,726.9c0-1.88-.92-2.8-2.84-2.8h-1.23c-1.93,0-2.84.92-2.84,2.8v20.66c0,1.88.92,2.8,2.84,2.8h1.23c1.92,0,2.84-.92,2.84-2.8V726.9Z" transform="translate(8.5 -16.3)"/><path class="cls-8" d="M464,751.72l-6.21-14.31v14a1.13,1.13,0,0,1-1.27,1.27h-0.09a1.13,1.13,0,0,1-1.27-1.27V723.1a1.13,1.13,0,0,1,1.27-1.27h0.09a1.13,1.13,0,0,1,1.27,1.27v13.74l6.39-13.92a1.45,1.45,0,0,1,1.31-1.09,1.19,1.19,0,0,1,1.18,1.71L460.33,737l6.13,13.87A1.32,1.32,0,1,1,464,751.72Z" transform="translate(8.5 -16.3)"/><path class="cls-8" d="M479.63,747.43c0,3.54-1.79,5.38-5.38,5.38h-1.4c-3.59,0-5.38-1.84-5.38-5.38V727c0-3.5,1.79-5.34,5.38-5.34h1.4c3.59,0,5.38,1.84,5.38,5.34v20.44ZM477,726.9c0-1.88-.92-2.8-2.84-2.8h-1.23c-1.92,0-2.84.92-2.84,2.8v20.66c0,1.88.92,2.8,2.84,2.8h1.23c1.93,0,2.84-.92,2.84-2.8V726.9Z" transform="translate(8.5 -16.3)"/><path class="cls-8" d="M484.35,735.7h6.74V723.1a1.13,1.13,0,0,1,1.27-1.27h0.09a1.13,1.13,0,0,1,1.27,1.27v28.27a1.13,1.13,0,0,1-1.27,1.27h-0.09a1.13,1.13,0,0,1-1.27-1.27V738.15h-6.74v13.22a1.13,1.13,0,0,1-1.27,1.27H483a1.13,1.13,0,0,1-1.27-1.27V723.1a1.13,1.13,0,0,1,1.27-1.27h0.09a1.13,1.13,0,0,1,1.27,1.27v12.6Z" transform="translate(8.5 -16.3)"/><path class="cls-8" d="M506.63,752.64a1.11,1.11,0,0,1-1.18-1l-0.74-4.86h-6.48l-0.74,4.86a1.11,1.11,0,0,1-1.18,1h-0.09a1.1,1.1,0,0,1-1.23-1.4L499.67,723a1.3,1.3,0,0,1,1.44-1.23h0.7a1.3,1.3,0,0,1,1.44,1.23l4.68,28.27a1.1,1.1,0,0,1-1.23,1.4h-0.09Zm-2.32-8.31L501.46,726l-2.89,18.29h5.73Z" transform="translate(8.5 -16.3)"/><path class="cls-8" d="M511.7,746.42v5a1.09,1.09,0,0,1-1.18,1.22h-0.09a1.11,1.11,0,0,1-1.23-1.22V723.27a1.31,1.31,0,0,1,1.44-1.45h1.22a1.28,1.28,0,0,1,1.4,1.18l4.81,25,4.81-25a1.29,1.29,0,0,1,1.4-1.18h1.18a1.31,1.31,0,0,1,1.44,1.45v28.1a1.12,1.12,0,0,1-1.22,1.27h-0.09a1.13,1.13,0,0,1-1.27-1.27v-5l0.09-19.87-4.9,25a1.28,1.28,0,0,1-1.4,1.18h-0.22a1.28,1.28,0,0,1-1.4-1.18l-4.9-25.08Z" transform="translate(8.5 -16.3)"/><path class="cls-8" d="M539.84,752.64a1.11,1.11,0,0,1-1.18-1l-0.75-4.86h-6.48l-0.74,4.86a1.11,1.11,0,0,1-1.18,1h-0.09a1.1,1.1,0,0,1-1.23-1.4L532.88,723a1.3,1.3,0,0,1,1.44-1.23H535a1.3,1.3,0,0,1,1.44,1.23l4.68,28.27a1.1,1.1,0,0,1-1.22,1.4h-0.09Zm-2.32-8.31L534.68,726l-2.89,18.29h5.73Z" transform="translate(8.5 -16.3)"/><path class="cls-14" d="M64.82,561.69a0.18,0.18,0,0,1-.19.2h0a0.19,0.19,0,0,1-.2-0.2v-7.58a0.18,0.18,0,0,1,.2-0.19h0a0.18,0.18,0,0,1,.19.19v2.25a1.74,1.74,0,0,1,1.17-.5,0.87,0.87,0,0,1,1,1v4.86a0.18,0.18,0,0,1-.19.2h0a0.19,0.19,0,0,1-.2-0.2V556.9a0.56,0.56,0,0,0-.62-0.63,1.86,1.86,0,0,0-1.15.58v4.85Z" transform="translate(8.5 -16.3)"/><path class="cls-14" d="M68.52,561.89h0a0.19,0.19,0,0,1-.2-0.2v-5.38H68a0.18,0.18,0,0,1-.19-0.19v0a0.18,0.18,0,0,1,.19-0.18h0.31v-0.83a0.19,0.19,0,0,1,.2-0.2h0a0.19,0.19,0,0,1,.2.2v0.83h0.63a0.18,0.18,0,0,1,.18.18v0a0.18,0.18,0,0,1-.18.19H68.72v5.38A0.19,0.19,0,0,1,68.52,561.89Z" transform="translate(8.5 -16.3)"/><path class="cls-14" d="M70.64,561.89h0a0.19,0.19,0,0,1-.2-0.2v-5.38H70.11a0.18,0.18,0,0,1-.19-0.19v0a0.18,0.18,0,0,1,.19-0.18h0.31v-0.83a0.19,0.19,0,0,1,.2-0.2h0a0.19,0.19,0,0,1,.2.2v0.83h0.63a0.18,0.18,0,0,1,.18.18v0a0.18,0.18,0,0,1-.18.19H70.84v5.38A0.19,0.19,0,0,1,70.64,561.89Z" transform="translate(8.5 -16.3)"/><path class="cls-14" d="M73.9,555.86a0.91,0.91,0,0,1,1,1v4.07a0.9,0.9,0,0,1-1,1,1.76,1.76,0,0,1-1.17-.49v1.5a0.18,0.18,0,0,1-.19.19h0a0.18,0.18,0,0,1-.2-0.19v-6.85a0.18,0.18,0,0,1,.2-0.19h0a0.18,0.18,0,0,1,.19.19v0.29A1.74,1.74,0,0,1,73.9,555.86Zm0.62,1a0.58,0.58,0,0,0-.64-0.63,1.71,1.71,0,0,0-1.15.57v4.11a1.68,1.68,0,0,0,1.11.58,0.59,0.59,0,0,0,.68-0.63v-4Z" transform="translate(8.5 -16.3)"/><path class="cls-14" d="M76,555.87a0.2,0.2,0,0,1,.21.21v0.58a0.2,0.2,0,0,1-.21.21h0a0.2,0.2,0,0,1-.21-0.21v-0.58a0.2,0.2,0,0,1,.21-0.21h0Zm0,5a0.2,0.2,0,0,1,.21.21v0.58a0.2,0.2,0,0,1-.21.21h0a0.2,0.2,0,0,1-.21-0.21V561.1a0.2,0.2,0,0,1,.21-0.21h0Z" transform="translate(8.5 -16.3)"/><path class="cls-14" d="M78.49,553.68a0.17,0.17,0,0,1,.18.21l-1.39,8.21a0.16,0.16,0,0,1-.17.14h0a0.17,0.17,0,0,1-.18-0.21l1.39-8.21a0.16,0.16,0,0,1,.17-0.14h0Z" transform="translate(8.5 -16.3)"/><path class="cls-14" d="M80.9,553.68a0.17,0.17,0,0,1,.18.21l-1.39,8.21a0.16,0.16,0,0,1-.17.14h0a0.17,0.17,0,0,1-.18-0.21l1.39-8.21a0.16,0.16,0,0,1,.17-0.14h0Z" transform="translate(8.5 -16.3)"/><path class="cls-14" d="M84.28,558a0.19,0.19,0,0,1-.2-0.2v-0.73a0.71,0.71,0,0,0-.81-0.81H83.11a0.71,0.71,0,0,0-.81.81v3.63a0.71,0.71,0,0,0,.81.81h0.17a0.71,0.71,0,0,0,.81-0.81v-0.92a0.18,0.18,0,0,1,.2-0.19h0a0.18,0.18,0,0,1,.19.19v0.91a1.08,1.08,0,0,1-1.21,1.22H83.1a1.08,1.08,0,0,1-1.22-1.22v-3.6a1.08,1.08,0,0,1,1.22-1.22h0.18a1.07,1.07,0,0,1,1.21,1.21v0.73a0.18,0.18,0,0,1-.19.2h0Z" transform="translate(8.5 -16.3)"/><path class="cls-14" d="M86.92,561.91H86.68a1.08,1.08,0,0,1-1.22-1.22v-3.6a1.08,1.08,0,0,1,1.22-1.22h0.23a1.08,1.08,0,0,1,1.21,1.22v3.6A1.08,1.08,0,0,1,86.92,561.91Zm0-5.65H86.69a0.71,0.71,0,0,0-.81.81v3.63a0.71,0.71,0,0,0,.81.81H86.9a0.71,0.71,0,0,0,.81-0.81v-3.63A0.71,0.71,0,0,0,86.9,556.26Z" transform="translate(8.5 -16.3)"/><path class="cls-14" d="M91.3,554.11a0.18,0.18,0,0,1,.2-0.19h0a0.18,0.18,0,0,1,.19.19v7.58a0.18,0.18,0,0,1-.19.2h0a0.19,0.19,0,0,1-.2-0.2v-0.28a1.73,1.73,0,0,1-1.17.5,0.91,0.91,0,0,1-1-1v-4.07a0.9,0.9,0,0,1,1-1,1.75,1.75,0,0,1,1.17.49v-2.24Zm-1.79,6.76a0.58,0.58,0,0,0,.65.63A1.71,1.71,0,0,0,91.3,561v-4.1a1.72,1.72,0,0,0-1.11-.59,0.59,0.59,0,0,0-.68.63v4Z" transform="translate(8.5 -16.3)"/><path class="cls-14" d="M95.34,560.68a1.1,1.1,0,0,1-1.23,1.23H94a1.1,1.1,0,0,1-1.23-1.23V557.1A1.1,1.1,0,0,1,94,555.86H94.1a1.1,1.1,0,0,1,1.23,1.24v1.76a0.2,0.2,0,0,1-.21.21h-2v1.62a0.73,0.73,0,0,0,.82.82H94.1a0.73,0.73,0,0,0,.82-0.82v-0.53a0.18,0.18,0,0,1,.2-0.19h0a0.18,0.18,0,0,1,.19.19v0.52Zm-2.18-3.59v1.58h1.76v-1.58A0.88,0.88,0,0,0,93.16,557.08Z" transform="translate(8.5 -16.3)"/><path class="cls-14" d="M98.07,554.15a0.22,0.22,0,0,1,.2-0.13h0.19a0.2,0.2,0,0,1,.21.21v5.6h0.59a0.18,0.18,0,0,1,.18.18v0a0.18,0.18,0,0,1-.18.19H98.67v1.49a0.18,0.18,0,0,1-.18.19h0a0.18,0.18,0,0,1-.19-0.19v-1.49H96.22A0.23,0.23,0,0,1,96,560a1,1,0,0,1,.1-0.33Zm-1.67,5.67h1.88v-5.2Z" transform="translate(8.5 -16.3)"/><path class="cls-14" d="M100.09,560.89a0.2,0.2,0,0,1,.21.21v0.58a0.2,0.2,0,0,1-.21.21h0a0.2,0.2,0,0,1-.21-0.21V561.1a0.2,0.2,0,0,1,.21-0.21h0Z" transform="translate(8.5 -16.3)"/><path class="cls-14" d="M102.35,563a0.18,0.18,0,0,1-.18.14h0a0.18,0.18,0,0,1-.19-0.22l0.21-1L101,556.12a0.19,0.19,0,0,1,.19-0.23h0a0.18,0.18,0,0,1,.19.16l1,5.08,1-5.09a0.18,0.18,0,0,1,.18-0.14h0a0.18,0.18,0,0,1,.19.22Z" transform="translate(8.5 -16.3)"/><path class="cls-14" d="M106,561.91h-0.23a1.08,1.08,0,0,1-1.22-1.22v-3.6a1.08,1.08,0,0,1,1.22-1.22H106a1.08,1.08,0,0,1,1.21,1.22v3.6A1.08,1.08,0,0,1,106,561.91Zm0-5.65h-0.21a0.71,0.71,0,0,0-.81.81v3.63a0.71,0.71,0,0,0,.81.81H106a0.71,0.71,0,0,0,.81-0.81v-3.63A0.71,0.71,0,0,0,106,556.26Z" transform="translate(8.5 -16.3)"/><path class="cls-14" d="M110.41,561.89a0.18,0.18,0,0,1-.17-0.1l-1.61-2.9v2.8a0.18,0.18,0,0,1-.19.2h0a0.19,0.19,0,0,1-.2-0.2v-7.58a0.18,0.18,0,0,1,.2-0.19h0a0.18,0.18,0,0,1,.19.19v4.69l1.66-2.84a0.18,0.18,0,0,1,.16-0.09h0a0.18,0.18,0,0,1,.17.29l-1.58,2.64,1.56,2.78A0.2,0.2,0,0,1,110.41,561.89Z" transform="translate(8.5 -16.3)"/><path class="cls-14" d="M112.85,561.91h-0.23a1.08,1.08,0,0,1-1.22-1.22v-3.6a1.08,1.08,0,0,1,1.22-1.22h0.23a1.08,1.08,0,0,1,1.21,1.22v3.6A1.08,1.08,0,0,1,112.85,561.91Zm0-5.65h-0.21a0.71,0.71,0,0,0-.81.81v3.63a0.71,0.71,0,0,0,.81.81h0.21a0.71,0.71,0,0,0,.81-0.81v-3.63A0.71,0.71,0,0,0,112.84,556.26Z" transform="translate(8.5 -16.3)"/><path class="cls-14" d="M115.5,561.69a0.18,0.18,0,0,1-.19.2h0a0.19,0.19,0,0,1-.2-0.2v-7.58a0.18,0.18,0,0,1,.2-0.19h0a0.18,0.18,0,0,1,.19.19v2.25a1.74,1.74,0,0,1,1.17-.5,0.87,0.87,0,0,1,1,1v4.86a0.18,0.18,0,0,1-.19.2h0a0.19,0.19,0,0,1-.2-0.2V556.9a0.56,0.56,0,0,0-.62-0.63,1.86,1.86,0,0,0-1.15.58v4.85Z" transform="translate(8.5 -16.3)"/><path class="cls-14" d="M120.76,561.43a1.84,1.84,0,0,1-1.13.48,0.84,0.84,0,0,1-1-.95v-1.1a1.11,1.11,0,0,1,.88-1.18l1.22-.47V557a0.68,0.68,0,0,0-.8-0.73,0.7,0.7,0,0,0-.83.73v0.62a0.18,0.18,0,0,1-.19.2h0a0.19,0.19,0,0,1-.2-0.2V557a1.07,1.07,0,0,1,1.25-1.15,1,1,0,0,1,1.22,1.15v4.68a0.19,0.19,0,0,1-.2.2h0a0.19,0.19,0,0,1-.2-0.2v-0.26Zm-1.06.08h0a1.76,1.76,0,0,0,1-.52v-2.38l-1.06.42a0.79,0.79,0,0,0-.62.84v1A0.54,0.54,0,0,0,119.7,561.51Z" transform="translate(8.5 -16.3)"/><path class="cls-14" d="M122.66,556.83v4.86a0.18,0.18,0,0,1-.19.2h0a0.19,0.19,0,0,1-.2-0.2v-5.62a0.18,0.18,0,0,1,.2-0.19h0a0.18,0.18,0,0,1,.19.19v0.29a1.75,1.75,0,0,1,1.16-.5,0.83,0.83,0,0,1,.88.52,1.76,1.76,0,0,1,1.19-.52,0.86,0.86,0,0,1,1,.92v4.91a0.19,0.19,0,0,1-.2.2h0a0.19,0.19,0,0,1-.2-0.2v-4.83a0.55,0.55,0,0,0-.62-0.61,1.69,1.69,0,0,0-1.06.53v4.91a0.19,0.19,0,0,1-.2.2h0a0.19,0.19,0,0,1-.2-0.2v-4.83a0.55,0.55,0,0,0-.6-0.61A1.93,1.93,0,0,0,122.66,556.83Z" transform="translate(8.5 -16.3)"/><path class="cls-14" d="M129.95,561.43a1.84,1.84,0,0,1-1.13.48,0.84,0.84,0,0,1-1-.95v-1.1a1.11,1.11,0,0,1,.88-1.18l1.22-.47V557a0.68,0.68,0,0,0-.8-0.73,0.7,0.7,0,0,0-.83.73v0.62a0.18,0.18,0,0,1-.19.2h0a0.19,0.19,0,0,1-.2-0.2V557a1.07,1.07,0,0,1,1.25-1.15,1,1,0,0,1,1.22,1.15v4.68a0.19,0.19,0,0,1-.2.2h0a0.19,0.19,0,0,1-.2-0.2v-0.26Zm-1.06.08h0a1.76,1.76,0,0,0,1-.52v-2.38l-1.06.42a0.79,0.79,0,0,0-.62.84v1A0.54,0.54,0,0,0,128.89,561.51Z" transform="translate(8.5 -16.3)"/></svg>